<?xml version="1.0" encoding="UTF-8"?>
<svg version="1.1" xmlns="http://www.w3.org/2000/svg" width="32" height="32">
<path d="M0 0 C10.56 0 21.12 0 32 0 C32 10.56 32 21.12 32 32 C21.44 32 10.88 32 0 32 C0 21.44 0 10.88 0 0 Z " fill="#229CEE" transform="translate(0,0)"/>
<path d="M0 0 C0.66 0 1.32 0 2 0 C2 5.61 2 11.22 2 17 C2.99 17 3.98 17 5 17 C5 11.72 5 6.44 5 1 C6.32 0.67 7.64 0.34 9 0 C9 5.61 9 11.22 9 17 C9.66 17 10.32 17 11 17 C10.67 17.99 10.34 18.98 10 20 C8.37536158 20.05395478 6.75021459 20.09277195 5.125 20.125 C4.22007813 20.14820312 3.31515625 20.17140625 2.3828125 20.1953125 C0 20 0 20 -2 18 C-2.19852102 15.29077199 -2.27839477 12.70696821 -2.25 10 C-2.25773438 9.26265625 -2.26546875 8.5253125 -2.2734375 7.765625 C-2.2533196 2.2533196 -2.2533196 2.2533196 0 0 Z " fill="#E5F3FD" transform="translate(9,6)"/>
<path d="M0 0 C0.99 0 1.98 0 3 0 C3 4.95 3 9.9 3 15 C1.02 15.99 1.02 15.99 -1 17 C-1.02684679 14.35409986 -1.04676357 11.70846904 -1.0625 9.0625 C-1.07087891 8.30775391 -1.07925781 7.55300781 -1.08789062 6.77539062 C-1.09652441 4.85005687 -1.05224333 2.92464419 -1 1 C-0.67 0.67 -0.34 0.34 0 0 Z " fill="#E7F4FD" transform="translate(22,6)"/>
<path d="M0 0 C0.99 0 1.98 0 3 0 C3 5.61 3 11.22 3 17 C3.66 17 4.32 17 5 17 C4.67 17.99 4.34 18.98 4 20 C2.68 19.67 1.36 19.34 0 19 C0 12.73 0 6.46 0 0 Z " fill="#FAFDFE" transform="translate(15,6)"/>
<path d="M0 0 C1.485 0.99 1.485 0.99 3 2 C3.22107787 4.7885289 3.28107535 7.34653181 3.1875 10.125 C3.17396484 10.87910156 3.16042969 11.63320313 3.14648438 12.41015625 C3.11109985 14.27374127 3.05729167 16.13695978 3 18 C2.01 17.67 1.02 17.34 0 17 C0 11.39 0 5.78 0 0 Z " fill="#3BA8EF" transform="translate(18,6)"/>
</svg>
